<svg width="36" height="40" viewBox="0 0 36 40" fill="none" xmlns="http://www.w3.org/2000/svg">
<path d="M1.50041 1.50042C6.73246 3.00068 12.1679 4.31871 17.2656 6.18331C20.521 7.37403 25.108 8.68271 27.4503 10.7807C29.2046 12.3521 31.287 13.8044 32.2846 15.5885C34.528 19.6006 33.6786 23.2555 31.2641 26.291C29.1741 28.9186 25.6744 30.9173 22.6706 33.0233C20.9814 34.2076 19.3534 35.4377 17.5418 36.543C17.0462 36.8455 16.1515 37.5167 15.2951 37.5487C14.9476 37.5617 14.6276 37.6684 14.6374 37.6442C14.9164 36.9514 15.6982 36.4529 15.9746 35.7285C16.1237 35.3375 17.1062 31.8605 16.6404 33.4851C16.3406 34.5306 16.0408 35.5762 15.741 36.6217C15.4212 37.7367 22.0643 37.1773 22.8995 37.0921" stroke="#E598CB" stroke-width="3" stroke-linecap="round"/>
</svg>
